<svg width="50" height="51" viewBox="0 0 50 51" fill="none" xmlns="http://www.w3.org/2000/svg">
<path d="M0 24.8902C0 13.3926 0 7.64374 3.57187 4.07187C7.14374 0.5 12.8926 0.5 24.3902 0.5H25.6098C37.1074 0.5 42.8563 0.5 46.4281 4.07187C50 7.64374 50 13.3926 50 24.8902V26.1098C50 37.6074 50 43.3563 46.4281 46.9281C42.8563 50.5 37.1074 50.5 25.6098 50.5H24.3902C12.8926 50.5 7.14374 50.5 3.57187 46.9281C0 43.3563 0 37.6074 0 26.1098V24.8902Z" fill="#E5F4F2"/>
<path opacity="0.2" d="M33.0031 16.6965H29.8019C29.3599 16.6965 29.0016 17.0548 29.0016 17.4968V20.6981C29.0016 21.1401 29.3599 21.4984 29.8019 21.4984H33.0031C33.4451 21.4984 33.8034 21.1401 33.8034 20.6981V17.4968C33.8034 17.0548 33.4451 16.6965 33.0031 16.6965Z" fill="#009379"/>
<path opacity="0.2" d="M16.997 16.7418H20.1982C20.6152 16.7418 20.9533 17.0798 20.9533 17.4968V20.6981C20.9533 21.1151 20.6152 21.4531 20.1982 21.4531H16.997C16.58 21.4531 16.242 21.1151 16.242 20.6981V17.4968C16.242 17.0798 16.58 16.7418 16.997 16.7418Z" fill="#009379" stroke="#009379" stroke-width="0.0905107"/>
<path opacity="0.2" d="M29.8019 29.5467H33.0031C33.4201 29.5467 33.7582 29.8848 33.7582 30.3018V33.503C33.7582 33.92 33.4201 34.258 33.0031 34.258H29.8019C29.3849 34.258 29.0468 33.92 29.0468 33.503V30.3018C29.0468 29.8848 29.3849 29.5467 29.8019 29.5467Z" fill="#009379" stroke="#009379" stroke-width="0.0905107"/>
<path opacity="0.2" d="M16.997 29.5467H20.1982C20.6152 29.5467 20.9533 29.8848 20.9533 30.3018V33.503C20.9533 33.92 20.6152 34.258 20.1982 34.258H16.997C16.58 34.258 16.242 33.92 16.242 33.503V30.3018C16.242 29.8848 16.58 29.5467 16.997 29.5467Z" fill="#009379" stroke="#009379" stroke-width="0.0905107"/>
<path d="M33.0031 16.6965H29.8019C29.3599 16.6965 29.0016 17.0548 29.0016 17.4968V20.6981C29.0016 21.1401 29.3599 21.4984 29.8019 21.4984H33.0031C33.4451 21.4984 33.8034 21.1401 33.8034 20.6981V17.4968C33.8034 17.0548 33.4451 16.6965 33.0031 16.6965Z" stroke="#009379" stroke-width="1.44817" stroke-linecap="round" stroke-linejoin="round"/>
<path d="M20.1982 16.6965H16.997C16.555 16.6965 16.1967 17.0548 16.1967 17.4968V20.6981C16.1967 21.1401 16.555 21.4984 16.997 21.4984H20.1982C20.6402 21.4984 20.9985 21.1401 20.9985 20.6981V17.4968C20.9985 17.0548 20.6402 16.6965 20.1982 16.6965Z" stroke="#009379" stroke-width="1.44817" stroke-linecap="round" stroke-linejoin="round"/>
<path d="M33.0031 29.5015H29.8019C29.3599 29.5015 29.0016 29.8598 29.0016 30.3018V33.503C29.0016 33.945 29.3599 34.3033 29.8019 34.3033H33.0031C33.4451 34.3033 33.8034 33.945 33.8034 33.503V30.3018C33.8034 29.8598 33.4451 29.5015 33.0031 29.5015Z" stroke="#009379" stroke-width="1.44817" stroke-linecap="round" stroke-linejoin="round"/>
<path d="M20.1982 29.5015H16.997C16.555 29.5015 16.1967 29.8598 16.1967 30.3018V33.503C16.1967 33.945 16.555 34.3033 16.997 34.3033H20.1982C20.6402 34.3033 20.9985 33.945 20.9985 33.503V30.3018C20.9985 29.8598 20.6402 29.5015 20.1982 29.5015Z" stroke="#009379" stroke-width="1.44817" stroke-linecap="round" stroke-linejoin="round"/>
<path d="M18.5976 29.5016V21.4985" stroke="#009379" stroke-width="1.44817" stroke-linecap="round" stroke-linejoin="round"/>
<path d="M29.0016 31.9023H20.9985" stroke="#009379" stroke-width="1.44817" stroke-linecap="round" stroke-linejoin="round"/>
<path d="M31.4025 21.4985V29.5016" stroke="#009379" stroke-width="1.44817" stroke-linecap="round" stroke-linejoin="round"/>
<path d="M20.9985 19.0974H29.0016" stroke="#009379" stroke-width="1.44817" stroke-linecap="round" stroke-linejoin="round"/>
</svg>
