<svg width="50" height="51" viewBox="0 0 50 51" fill="none" xmlns="http://www.w3.org/2000/svg">
<path d="M0 24.8902C0 13.3926 0 7.64374 3.57187 4.07187C7.14374 0.5 12.8926 0.5 24.3902 0.5H25.6098C37.1074 0.5 42.8563 0.5 46.4281 4.07187C50 7.64374 50 13.3926 50 24.8902V26.1098C50 37.6074 50 43.3563 46.4281 46.9281C42.8563 50.5 37.1074 50.5 25.6098 50.5H24.3902C12.8926 50.5 7.14374 50.5 3.57187 46.9281C0 43.3563 0 37.6074 0 26.1098V24.8902Z" fill="#E5F4F2"/>
<path opacity="0.2" d="M19.1678 34.5335C19.0934 34.6091 19.0046 34.6692 18.9067 34.7102C18.8088 34.7512 18.7037 34.7723 18.5976 34.7723C18.4915 34.7723 18.3864 34.7512 18.2885 34.7102C18.1906 34.6692 18.1019 34.6091 18.0274 34.5335L15.9666 32.4727C15.891 32.3983 15.8309 32.3095 15.79 32.2116C15.749 32.1137 15.7279 32.0086 15.7279 31.9025C15.7279 31.7964 15.749 31.6913 15.79 31.5934C15.8309 31.4955 15.891 31.4068 15.9666 31.3323L26.6007 20.6982L29.8019 23.8995L19.1678 34.5335Z" fill="#009379"/>
<path d="M33.8034 25.5V30.3018" stroke="#009379" stroke-width="1.44817" stroke-linecap="round" stroke-linejoin="round"/>
<path d="M31.4025 27.9009H36.2043" stroke="#009379" stroke-width="1.44817" stroke-linecap="round" stroke-linejoin="round"/>
<path d="M20.5984 16.6965V20.6981" stroke="#009379" stroke-width="1.44817" stroke-linecap="round" stroke-linejoin="round"/>
<path d="M18.5976 18.6973H22.5991" stroke="#009379" stroke-width="1.44817" stroke-linecap="round" stroke-linejoin="round"/>
<path d="M29.0016 31.1021V34.3033" stroke="#009379" stroke-width="1.44817" stroke-linecap="round" stroke-linejoin="round"/>
<path d="M27.401 32.7026H30.6022" stroke="#009379" stroke-width="1.44817" stroke-linecap="round" stroke-linejoin="round"/>
<path d="M30.8449 16.4596L15.9688 31.3357C15.6563 31.6482 15.6563 32.155 15.9688 32.4675L18.0379 34.5366C18.3504 34.8491 18.8571 34.8491 19.1697 34.5366L34.0458 19.6605C34.3583 19.3479 34.3583 18.8412 34.0458 18.5287L31.9767 16.4596C31.6642 16.1471 31.1575 16.1471 30.8449 16.4596Z" stroke="#009379" stroke-width="1.44817" stroke-linecap="round" stroke-linejoin="round"/>
<path d="M26.6007 20.6982L29.8019 23.8995" stroke="#009379" stroke-width="1.44817" stroke-linecap="round" stroke-linejoin="round"/>
</svg>
