<svg width="50" height="51" viewBox="0 0 50 51" fill="none" xmlns="http://www.w3.org/2000/svg">
<path d="M0 24.8902C0 13.3926 0 7.64374 3.57187 4.07187C7.14374 0.5 12.8926 0.5 24.3902 0.5H25.6098C37.1074 0.5 42.8563 0.5 46.4281 4.07187C50 7.64374 50 13.3926 50 24.8902V26.1098C50 37.6074 50 43.3563 46.4281 46.9281C42.8563 50.5 37.1074 50.5 25.6098 50.5H24.3902C12.8926 50.5 7.14374 50.5 3.57187 46.9281C0 43.3563 0 37.6074 0 26.1098V24.8902Z" fill="#E5F4F2"/>
<path opacity="0.2" d="M15.5064 20.158C15.434 20.2825 15.396 20.424 15.3964 20.5681V30.4319C15.3972 30.5744 15.4355 30.7141 15.5075 30.8371C15.5795 30.96 15.6827 31.0618 15.8066 31.1321L24.6099 36.084C24.7286 36.1518 24.8634 36.1864 25.0001 36.1841L25.0901 25.5L15.5064 20.158Z" fill="#009379"/>
<path d="M34.6037 30.4317V20.568C34.603 20.4255 34.5646 20.2857 34.4926 20.1628C34.4206 20.0398 34.3175 19.9381 34.1936 19.8677L25.3902 14.9158C25.2716 14.8473 25.137 14.8113 25.0001 14.8113C24.8631 14.8113 24.7285 14.8473 24.6099 14.9158L15.8066 19.8677C15.6827 19.9381 15.5795 20.0398 15.5075 20.1628C15.4355 20.2857 15.3972 20.4255 15.3964 20.568V30.4317C15.3972 30.5742 15.4355 30.714 15.5075 30.8369C15.5795 30.9599 15.6827 31.0616 15.8066 31.132L24.6099 36.0839C24.7285 36.1524 24.8631 36.1884 25.0001 36.1884C25.137 36.1884 25.2716 36.1524 25.3902 36.0839L34.1936 31.132C34.3175 31.0616 34.4206 30.9599 34.4926 30.8369C34.5646 30.714 34.603 30.5742 34.6037 30.4317V30.4317Z" stroke="#009379" stroke-width="1.44817" stroke-linecap="round" stroke-linejoin="round"/>
<path d="M29.9019 27.951V22.749L20.1982 17.397" stroke="#009379" stroke-width="1.44817" stroke-linecap="round" stroke-linejoin="round"/>
<path d="M34.4937 20.158L25.0901 25.5L15.5064 20.158" stroke="#009379" stroke-width="1.44817" stroke-linecap="round" stroke-linejoin="round"/>
<path d="M25.0901 25.5L25.0001 36.1841" stroke="#009379" stroke-width="1.44817" stroke-linecap="round" stroke-linejoin="round"/>
</svg>
