<svg width="50" height="51" viewBox="0 0 50 51" fill="none" xmlns="http://www.w3.org/2000/svg">
<path d="M0 24.8902C0 13.3926 0 7.64374 3.57187 4.07187C7.14374 0.5 12.8926 0.5 24.3902 0.5H25.6098C37.1074 0.5 42.8563 0.5 46.4281 4.07187C50 7.64374 50 13.3926 50 24.8902V26.1098C50 37.6074 50 43.3563 46.4281 46.9281C42.8563 50.5 37.1074 50.5 25.6098 50.5H24.3902C12.8926 50.5 7.14374 50.5 3.57187 46.9281C0 43.3563 0 37.6074 0 26.1098V24.8902Z" fill="#E5F4F2"/>
<path opacity="0.2" d="M29.9019 19.5776C30.3599 20.4116 30.6007 21.3473 30.6022 22.2987V22.6888C30.6038 23.0501 30.4816 23.4011 30.2559 23.6832C30.0302 23.9654 29.7146 24.1617 29.3617 24.2394C27.9303 24.5594 26.4668 24.7138 25.0001 24.6996C23.5334 24.7138 22.0699 24.5594 20.6384 24.2394C20.2856 24.1617 19.97 23.9654 19.7443 23.6832C19.5186 23.4011 19.3963 23.0501 19.3979 22.6888V22.3787C19.3985 21.3967 19.6536 20.4317 20.1382 19.5776C16.3868 20.3479 13.7958 21.9986 13.7958 23.8993C13.7958 26.5503 18.8077 28.7011 25.0001 28.7011C31.1924 28.7011 36.2043 26.5503 36.2043 23.8993C36.2043 21.9986 33.6334 20.3579 29.9019 19.5776Z" fill="#009379"/>
<path d="M29.0816 31.5723L29.4718 33.9332" stroke="#009379" stroke-width="1.44817" stroke-linecap="round" stroke-linejoin="round"/>
<path d="M25.0001 31.9023V35.1036" stroke="#009379" stroke-width="1.44817" stroke-linecap="round" stroke-linejoin="round"/>
<path d="M20.9185 31.5723L20.5284 33.9332" stroke="#009379" stroke-width="1.44817" stroke-linecap="round" stroke-linejoin="round"/>
<path d="M29.9019 19.5776C33.6334 20.3579 36.2043 21.9986 36.2043 23.8993C36.2043 26.5503 31.1924 28.7011 25.0001 28.7011C18.8077 28.7011 13.7958 26.5503 13.7958 23.8993C13.7958 21.9986 16.3868 20.3479 20.1382 19.5776" stroke="#009379" stroke-width="1.44817" stroke-linecap="round" stroke-linejoin="round"/>
<path d="M19.3979 22.6888C19.3963 23.0501 19.5186 23.401 19.7443 23.6832C19.97 23.9653 20.2856 24.1616 20.6384 24.2394C22.0699 24.5593 23.5334 24.7137 25.0001 24.6995C26.4668 24.7137 27.9303 24.5593 29.3617 24.2394C29.7146 24.1616 30.0301 23.9653 30.2559 23.6832C30.4816 23.401 30.6038 23.0501 30.6022 22.6888V22.2986C30.6023 21.557 30.4551 20.8228 30.1692 20.1385C29.8833 19.4542 29.4643 18.8335 28.9367 18.3123C28.409 17.7912 27.7832 17.38 27.0954 17.1027C26.4076 16.8253 25.6716 16.6872 24.93 16.6965C21.8489 16.7365 19.3979 19.3075 19.3979 22.3786V22.6888Z" stroke="#009379" stroke-width="1.44817" stroke-linecap="round" stroke-linejoin="round"/>
</svg>
