<svg width="26" height="27" viewBox="0 0 26 27" fill="none" xmlns="http://www.w3.org/2000/svg">
<path d="M13.5077 21.1982L19.3226 24.8902C20.0725 25.3633 20.9956 24.6595 20.7763 23.7941L19.0919 17.1716C19.0463 16.988 19.0535 16.7953 19.1127 16.6157C19.1719 16.436 19.2807 16.2768 19.4264 16.1563L24.6414 11.8066C25.3222 11.2412 24.976 10.099 24.0876 10.0413L17.2804 9.60289C17.0947 9.59209 16.9161 9.52741 16.7666 9.41677C16.617 9.30612 16.5029 9.1543 16.4382 8.97986L13.8999 2.58803C13.8327 2.40332 13.7103 2.24376 13.5493 2.131C13.3883 2.01825 13.1966 1.95776 13 1.95776C12.8034 1.95776 12.6117 2.01825 12.4507 2.131C12.2897 2.24376 12.1673 2.40332 12.1001 2.58803L9.56179 8.97986C9.4971 9.1543 9.383 9.30612 9.23343 9.41677C9.08385 9.52741 8.90529 9.59209 8.71955 9.60289L1.91237 10.0413C1.02397 10.099 0.677844 11.2412 1.35856 11.8066L6.57356 16.1563C6.71932 16.2768 6.82806 16.436 6.88726 16.6157C6.94645 16.7953 6.9537 16.988 6.90815 17.1716L5.35057 23.3096C5.08521 24.3479 6.19282 25.1902 7.08121 24.6248L12.4923 21.1982C12.6441 21.1017 12.8202 21.0504 13 21.0504C13.1798 21.0504 13.3559 21.1017 13.5077 21.1982Z" fill="#F8D57E" stroke="#F8D57E" stroke-width="2" stroke-linecap="round" stroke-linejoin="round"/>
</svg>
